<mxfile host="Electron" modified="2024-05-28T08:46:51.111Z" agent="Mozilla/5.0 (Macintosh; Intel Mac OS X 10_15_7) AppleWebKit/537.36 (KHTML, like Gecko) draw.io/21.6.5 Chrome/114.0.5735.243 Electron/25.3.1 Safari/537.36" etag="dvR8j9Jwt_qMTh4mXQqN" version="21.6.5" type="device">
  <diagram name="Page-1" id="bVl4x9MEjn0SJBsZFHSi">
    <mxGraphModel dx="1242" dy="793" grid="1" gridSize="10" guides="1" tooltips="1" connect="1" arrows="1" fold="1" page="1" pageScale="1" pageWidth="2339" pageHeight="3300" math="0" shadow="0">
      <root>
        <mxCell id="0" />
        <mxCell id="1" parent="0" />
        <mxCell id="nl77KAn-5byxoV1zQQrU-6" style="edgeStyle=orthogonalEdgeStyle;rounded=0;orthogonalLoop=1;jettySize=auto;html=1;entryX=0.5;entryY=0;entryDx=0;entryDy=0;" parent="1" source="nl77KAn-5byxoV1zQQrU-1" target="nl77KAn-5byxoV1zQQrU-2" edge="1">
          <mxGeometry relative="1" as="geometry">
            <Array as="points">
              <mxPoint x="280" y="590" />
              <mxPoint x="280" y="590" />
            </Array>
          </mxGeometry>
        </mxCell>
        <mxCell id="nl77KAn-5byxoV1zQQrU-7" value="存储任务" style="edgeLabel;html=1;align=center;verticalAlign=middle;resizable=0;points=[];" parent="nl77KAn-5byxoV1zQQrU-6" vertex="1" connectable="0">
          <mxGeometry x="-0.4769" y="-1" relative="1" as="geometry">
            <mxPoint x="1" y="26" as="offset" />
          </mxGeometry>
        </mxCell>
        <mxCell id="abzkZwWDtc23uede4cpr-4" style="edgeStyle=orthogonalEdgeStyle;rounded=0;orthogonalLoop=1;jettySize=auto;html=1;entryX=0;entryY=0.5;entryDx=0;entryDy=0;" parent="1" source="nl77KAn-5byxoV1zQQrU-1" target="abzkZwWDtc23uede4cpr-3" edge="1">
          <mxGeometry relative="1" as="geometry" />
        </mxCell>
        <mxCell id="abzkZwWDtc23uede4cpr-5" value="获取任务" style="edgeLabel;html=1;align=center;verticalAlign=middle;resizable=0;points=[];" parent="abzkZwWDtc23uede4cpr-4" vertex="1" connectable="0">
          <mxGeometry relative="1" as="geometry">
            <mxPoint as="offset" />
          </mxGeometry>
        </mxCell>
        <mxCell id="abzkZwWDtc23uede4cpr-11" style="edgeStyle=orthogonalEdgeStyle;rounded=0;orthogonalLoop=1;jettySize=auto;html=1;" parent="1" source="nl77KAn-5byxoV1zQQrU-1" edge="1">
          <mxGeometry relative="1" as="geometry">
            <mxPoint x="280" y="360" as="targetPoint" />
          </mxGeometry>
        </mxCell>
        <mxCell id="nl77KAn-5byxoV1zQQrU-1" value="server" style="rounded=1;whiteSpace=wrap;html=1;" parent="1" vertex="1">
          <mxGeometry x="220" y="480" width="120" height="60" as="geometry" />
        </mxCell>
        <mxCell id="abzkZwWDtc23uede4cpr-9" style="edgeStyle=orthogonalEdgeStyle;rounded=0;orthogonalLoop=1;jettySize=auto;html=1;" parent="1" source="nl77KAn-5byxoV1zQQrU-2" edge="1">
          <mxGeometry relative="1" as="geometry">
            <mxPoint x="280" y="550" as="targetPoint" />
          </mxGeometry>
        </mxCell>
        <mxCell id="nl77KAn-5byxoV1zQQrU-2" value="mysql" style="rounded=1;whiteSpace=wrap;html=1;" parent="1" vertex="1">
          <mxGeometry x="220" y="630" width="120" height="60" as="geometry" />
        </mxCell>
        <mxCell id="nl77KAn-5byxoV1zQQrU-4" style="edgeStyle=orthogonalEdgeStyle;rounded=0;orthogonalLoop=1;jettySize=auto;html=1;entryX=0.5;entryY=0;entryDx=0;entryDy=0;" parent="1" source="nl77KAn-5byxoV1zQQrU-3" target="nl77KAn-5byxoV1zQQrU-1" edge="1">
          <mxGeometry relative="1" as="geometry" />
        </mxCell>
        <mxCell id="Ic3QCKjifqApM99KeEfe-1" value="读写任务" style="edgeLabel;html=1;align=center;verticalAlign=middle;resizable=0;points=[];" vertex="1" connectable="0" parent="nl77KAn-5byxoV1zQQrU-4">
          <mxGeometry x="-0.1333" relative="1" as="geometry">
            <mxPoint as="offset" />
          </mxGeometry>
        </mxCell>
        <mxCell id="nl77KAn-5byxoV1zQQrU-3" value="gctl" style="rounded=1;whiteSpace=wrap;html=1;" parent="1" vertex="1">
          <mxGeometry x="220" y="330" width="120" height="60" as="geometry" />
        </mxCell>
        <mxCell id="Ic3QCKjifqApM99KeEfe-3" style="edgeStyle=orthogonalEdgeStyle;rounded=0;orthogonalLoop=1;jettySize=auto;html=1;entryX=0.5;entryY=0;entryDx=0;entryDy=0;" edge="1" parent="1" source="abzkZwWDtc23uede4cpr-1" target="abzkZwWDtc23uede4cpr-2">
          <mxGeometry relative="1" as="geometry">
            <Array as="points">
              <mxPoint x="990" y="460" />
              <mxPoint x="760" y="460" />
            </Array>
          </mxGeometry>
        </mxCell>
        <mxCell id="Ic3QCKjifqApM99KeEfe-5" value="回写执行结果" style="edgeLabel;html=1;align=center;verticalAlign=middle;resizable=0;points=[];" vertex="1" connectable="0" parent="Ic3QCKjifqApM99KeEfe-3">
          <mxGeometry x="-0.037" relative="1" as="geometry">
            <mxPoint as="offset" />
          </mxGeometry>
        </mxCell>
        <mxCell id="abzkZwWDtc23uede4cpr-1" value="worker" style="rounded=1;whiteSpace=wrap;html=1;" parent="1" vertex="1">
          <mxGeometry x="930" y="480" width="120" height="60" as="geometry" />
        </mxCell>
        <mxCell id="abzkZwWDtc23uede4cpr-14" style="edgeStyle=orthogonalEdgeStyle;rounded=0;orthogonalLoop=1;jettySize=auto;html=1;entryX=0;entryY=0.5;entryDx=0;entryDy=0;" parent="1" source="abzkZwWDtc23uede4cpr-2" target="abzkZwWDtc23uede4cpr-1" edge="1">
          <mxGeometry relative="1" as="geometry" />
        </mxCell>
        <mxCell id="abzkZwWDtc23uede4cpr-15" value="执行任务" style="edgeLabel;html=1;align=center;verticalAlign=middle;resizable=0;points=[];" parent="abzkZwWDtc23uede4cpr-14" vertex="1" connectable="0">
          <mxGeometry x="-0.1769" y="-3" relative="1" as="geometry">
            <mxPoint x="14" y="-3" as="offset" />
          </mxGeometry>
        </mxCell>
        <mxCell id="Ic3QCKjifqApM99KeEfe-7" style="edgeStyle=orthogonalEdgeStyle;rounded=0;orthogonalLoop=1;jettySize=auto;html=1;entryX=0.5;entryY=1;entryDx=0;entryDy=0;" edge="1" parent="1" source="abzkZwWDtc23uede4cpr-2" target="abzkZwWDtc23uede4cpr-3">
          <mxGeometry relative="1" as="geometry">
            <Array as="points">
              <mxPoint x="760" y="560" />
              <mxPoint x="520" y="560" />
            </Array>
          </mxGeometry>
        </mxCell>
        <mxCell id="Ic3QCKjifqApM99KeEfe-8" value="读取执行结果" style="edgeLabel;html=1;align=center;verticalAlign=middle;resizable=0;points=[];" vertex="1" connectable="0" parent="Ic3QCKjifqApM99KeEfe-7">
          <mxGeometry x="0.0214" y="1" relative="1" as="geometry">
            <mxPoint as="offset" />
          </mxGeometry>
        </mxCell>
        <mxCell id="abzkZwWDtc23uede4cpr-2" value="redis" style="rounded=1;whiteSpace=wrap;html=1;" parent="1" vertex="1">
          <mxGeometry x="700" y="480" width="120" height="60" as="geometry" />
        </mxCell>
        <mxCell id="abzkZwWDtc23uede4cpr-12" style="edgeStyle=orthogonalEdgeStyle;rounded=0;orthogonalLoop=1;jettySize=auto;html=1;entryX=0;entryY=0.5;entryDx=0;entryDy=0;" parent="1" source="abzkZwWDtc23uede4cpr-3" target="abzkZwWDtc23uede4cpr-2" edge="1">
          <mxGeometry relative="1" as="geometry" />
        </mxCell>
        <mxCell id="abzkZwWDtc23uede4cpr-13" value="调度任务" style="edgeLabel;html=1;align=center;verticalAlign=middle;resizable=0;points=[];" parent="abzkZwWDtc23uede4cpr-12" vertex="1" connectable="0">
          <mxGeometry x="-0.0769" y="-2" relative="1" as="geometry">
            <mxPoint x="5" y="-2" as="offset" />
          </mxGeometry>
        </mxCell>
        <mxCell id="Ic3QCKjifqApM99KeEfe-10" style="edgeStyle=orthogonalEdgeStyle;rounded=0;orthogonalLoop=1;jettySize=auto;html=1;entryX=1;entryY=0.5;entryDx=0;entryDy=0;" edge="1" parent="1" source="abzkZwWDtc23uede4cpr-3" target="nl77KAn-5byxoV1zQQrU-1">
          <mxGeometry relative="1" as="geometry">
            <Array as="points">
              <mxPoint x="520" y="450" />
              <mxPoint x="340" y="450" />
            </Array>
          </mxGeometry>
        </mxCell>
        <mxCell id="Ic3QCKjifqApM99KeEfe-11" value="回写执行结果" style="edgeLabel;html=1;align=center;verticalAlign=middle;resizable=0;points=[];" vertex="1" connectable="0" parent="Ic3QCKjifqApM99KeEfe-10">
          <mxGeometry x="-0.0074" relative="1" as="geometry">
            <mxPoint as="offset" />
          </mxGeometry>
        </mxCell>
        <mxCell id="abzkZwWDtc23uede4cpr-3" value="scheduler" style="rounded=1;whiteSpace=wrap;html=1;" parent="1" vertex="1">
          <mxGeometry x="460" y="480" width="120" height="60" as="geometry" />
        </mxCell>
      </root>
    </mxGraphModel>
  </diagram>
</mxfile>
